Coordinates

Units are S.I. units (second, meters, Newtons, ...)
If the header above contains a line with 'inDegrees', this indicates whether rotational values are in degrees (yes) or radians (no).

inDegrees=no
nColumns=21
nRows=15
DataType=double
version=3
OpenSimVersion=4.6-2026-03-31-d6972f9e6
endheader
time	/jointset/ground_pelvis/pelvis_tilt/value	/jointset/ground_pelvis/pelvis_list/value	/jointset/ground_pelvis/pelvis_rotation/value	/jointset/ground_pelvis/pelvis_tx/value	/jointset/ground_pelvis/pelvis_ty/value	/jointset/ground_pelvis/pelvis_tz/value	/jointset/hip_r/hip_flexion_r/value	/jointset/hip_r/hip_adduction_r/value	/jointset/hip_r/hip_rotation_r/value	/jointset/walker_knee_r/knee_angle_r/value	/jointset/patellofemoral_r/knee_angle_r_beta/value	/jointset/ankle_r/ankle_angle_r/value	/jointset/subtalar_r/subtalar_angle_r/value	/jointset/hip_l/hip_flexion_l/value	/jointset/hip_l/hip_adduction_l/value	/jointset/hip_l/hip_rotation_l/value	/jointset/walker_knee_l/knee_angle_l/value	/jointset/patellofemoral_l/knee_angle_l_beta/value	/jointset/ankle_l/ankle_angle_l/value	/jointset/subtalar_l/subtalar_angle_l/value
142.496	-0.04321826466864715	-0.03506447106310698	1.515022049208536	0.8773777940606662	1.124289361646593	-0.9632025332628837	-0.04192984335662556	0.0694241546370597	0.1918217736883499	0.4793661488953475	0.4793661497973475	0.2028643863691187	-0.502156320860368	0.4902927976370161	-0.04825274633700225	0.01984252194576195	1.558001968871638	1.558001969247375	-0.2211103251291976	-0.3856085160240347
142.5	-0.05402720210743409	-0.04109560341963051	1.517203017223624	0.8771142594068762	1.127533935018954	-0.9636083083182146	-0.05630758440434654	0.05446738984080062	0.1871714534001723	0.4571696394513139	0.4571696403548782	0.1792856763930734	-0.4943850228427206	0.5045406489033826	-0.03248012701176407	0.01626373444399076	1.533745401632044	1.533745402091689	-0.2183634347956971	-0.3887267913704931
142.504	-0.06481234234895188	-0.04701318476541033	1.519176784819607	0.8768455900366851	1.130842636453012	-0.9640712222793414	-0.07045966931079529	0.03947016416471131	0.1814731676283367	0.435316616008101	0.4353166168722276	0.1543423976489933	-0.4850890571945363	0.5177702932174116	-0.01675598169973793	0.01243673778190015	1.508094513880581	1.50809451439113	-0.2165634681139978	-0.3935082653502082
142.508	-0.07549724742638045	-0.05275567189766804	1.520954154819296	0.8765713655508387	1.134210677658922	-0.9645897524106782	-0.084403833845637	0.02451245503355287	0.1746747601210145	0.413889080688796	0.4138890814755379	0.128181180411037	-0.4741416453010914	0.5299260989015597	-0.001181229652288537	0.008428891268685469	1.481082756844976	1.481082757371881	-0.2156733037299569	-0.3998541373827819
142.512	-0.0860033033315607	-0.05826843475649903	1.522544591275318	0.8762919999687019	1.137632328761428	-0.9651617807738971	-0.09815276073404208	0.009679016693161471	0.1667451488560555	0.3929653557741626	0.3929653564505065	0.1009615180235659	-0.4614462414412065	0.5409615741633389	0.01414163233784472	0.004305296148616807	1.452747059560746	1.45274706006964	-0.2156295712105717	-0.4076228454982661
142.516	-0.09625148039808962	-0.06350515323223402	1.523955715026255	0.8760087173389364	1.141100721984917	-0.9657845276074293	-0.1117129513938126	-0.004942770208283639	0.1576770064323343	0.3726199973123047	0.3726199978513669	0.07285467350566881	-0.4469415391584041	0.5508407661048429	0.02911059904451818	0.0001275202025805942	1.423128076537077	1.423128076995462	-0.2163439686587163	-0.4166324706384411
142.52	-0.1061641479196887	-0.06842872541645628	1.52519308950531	0.8757234758008401	1.144607724848363	-0.9664545191805445	-0.1250841384986746	-0.01926522545657845	0.1474888783502066	0.3529237364769183	0.3529237368585543	0.04404242719709527	-0.4306056698525783	0.5595391891776623	0.04362642894897803	-0.004047386153283912	1.392270313970337	1.392270314349283	-0.2177059121986085	-0.4266648557093337
142.524	-0.1156667774672514	-0.07301187593722745	1.526260248511527	0.8754388508760623	1.148143866464806	-0.9671675863299329	-0.1382589801738827	-0.03320262644701854	0.1362267566823588	0.3339435438241972	0.3339435440352282	0.01471575791417485	-0.412459337644342	0.5670445046993198	0.05759487043287533	-0.008167570549357952	1.360222220423196	1.360222220698893	-0.2195862636525641	-0.4374711557362513
142.528	-0.1246894256334838	-0.07723749785000816	1.5271589311065	0.8751578885048487	1.151698314237379	-0.9679188926753832	-0.1512229824740892	-0.04667322713964392	0.1239650882471602	0.3157428297305809	0.3157428297648449	-0.01492651963328677	-0.3925676901796014	0.573356973357056	0.07092867284061623	-0.01218677871080654	1.327036279968926	1.32703628012385	-0.2218419088367045	-0.4487786142961838
142.532	-0.1331679394904757	-0.08109867525189678	1.527889500015993	0.874883938605464	1.155258906140247	-0.9687029926395432	-0.1639547177069139	-0.05960093750416142	0.1108071925899803	0.2983817324804613	0.298381732338743	-0.04467919308733043	-0.3710408118383839	0.5784895944640644	0.08354928774380829	-0.01606451351619859	1.292769116186129	1.292769116209678	-0.224320966886284	-0.4602983700697073
142.536	-0.1410448536256801	-0.08459838857238608	1.52845151674524	0.8746204804735618	1.158812237924037	-0.9695139168111097	-0.1764263405311931	-0.07191659094097512	0.09688509024520187	0.2819174497739501	0.2819174494637061	-0.07433220360591658	-0.3480328063020208	0.5824679185255908	0.09538819696019529	-0.0197659891445305	1.257481628675431	1.25748162856403	-0.2268683431785308	-0.4717339697311914
142.54	-0.1482699695416131	-0.08774894257595461	1.528844433969846	0.874370951151082	1.162343799660775	-0.9703452799047886	-0.1886043527118174	-0.08355876050507541	0.08235873711255727	0.2664045792249974	0.2664045787598026	-0.103672343168979	-0.323739475100504	0.5853295705237487	0.1063878265869723	-0.02326192814705171	1.221239189589657	1.221239189346492	-0.2293312991329257	-0.48279019535617
142.544	-0.1548006342449376	-0.09057113286254444	1.52906835253788	0.8741385866300231	1.165838156955633	-0.971190406187413	-0.2004505931678919	-0.09447413274133944	0.06741462310668733	0.2518954281141301	0.2518954275127825	-0.1324851330391697	-0.2983945966571422	0.587123490885134	0.1165020365960333	-0.0265282759602222	1.184111909593138	1.184111909227702	-0.2315647382073447	-0.4931818588291422
142.548	-0.160601756884801	-0.09309314876465639	1.529124788051649	0.8739262830318341	1.169279173025319	-0.9720424672688575	-0.2119234494603968	-0.1046174888451933	0.05226366753634729	0.2384402545586195	0.2384402538438404	-0.1605569201609466	-0.2722648230861467	0.5879088788539768	0.1256962109714524	-0.0295459124096208	1.14617496422794	1.146174963755513	-0.2334359451881322	-0.5026422605045147
142.552	-0.165645613042925	-0.09534922792681107	1.529017397577467	0.8737364821777203	1.172650266002276	-0.9728946268113261	-0.2229792667987984	-0.1139513607028969	0.03713835883783879	0.2260874120665833	0.2260874112633957	-0.1876772460088117	-0.2456433084296438	0.5877538466083956	0.133946998802031	-0.03230041934009266	1.107508965987122	1.107508965428086	-0.2348285271641267	-0.5109309891164611
